<?xml version="1.0" ?><svg enable-background="new 0 0 100 100" version="1.1" viewBox="0 0 100 100" xml:space="preserve" xmlns="http://www.w3.org/2000/svg" xmlns:xlink="http://www.w3.org/1999/xlink"><g id="Layer_11"><rect fill="#232323" height="12.238" stroke="#191919" stroke-miterlimit="10" width="8.01" x="64.218" y="59.313"/><path d="M70.099,73.647l17.508,3.05c0.613,0.107,1.175-0.365,1.175-0.988   V55.153c0-0.623-0.561-1.095-1.175-0.988l-17.508,3.05c-0.48,0.084-0.831,0.5-0.831,0.988v14.456   C69.268,73.147,69.619,73.563,70.099,73.647z" fill="#5B5B5B" stroke="#191919" stroke-miterlimit="10"/><path d="M58.127,81.529H30.312c-0.615,0-1.114-0.499-1.114-1.114V64.743   c0-0.615,0.499-1.114,1.114-1.114h27.815c0.615,0,1.114,0.499,1.114,1.114v15.672C59.24,81.03,58.742,81.529,58.127,81.529z" fill="#232323" stroke="#191919" stroke-miterlimit="10"/><path d="M66.534,79.391H21.905c-0.615,0-1.114-0.499-1.114-1.114V52.586   c0-0.615,0.499-1.114,1.114-1.114h44.629c0.615,0,1.114,0.499,1.114,1.114v25.691C67.648,78.892,67.149,79.391,66.534,79.391z" fill="#5B5B5B" stroke="#191919" stroke-miterlimit="10"/><path d="M61.177,19.688c-8.441,0-15.283,6.843-15.283,15.283c0,8.441,6.843,15.283,15.283,15.283   S76.46,43.412,76.46,34.971C76.46,26.531,69.617,19.688,61.177,19.688z M61.269,38.96c-1.88,0-3.404-1.524-3.404-3.404   c0-1.88,1.524-3.404,3.404-3.404c1.88,0,3.404,1.524,3.404,3.404C64.673,37.436,63.149,38.96,61.269,38.96z" fill="#232323"/><g><path d="M61.177,50.972c-8.823,0-16.001-7.178-16.001-16.001s7.178-16,16.001-16c8.822,0,16,7.178,16,16    S69.999,50.972,61.177,50.972z M65.942,38.627c-0.342,0-0.671,0.163-0.88,0.437c-0.212,0.275-0.281,0.626-0.19,0.963l1.779,6.647    c0.131,0.485,0.573,0.824,1.077,0.824c0.296,0,0.574-0.116,0.784-0.326l4.865-4.866c0.284-0.284,0.392-0.686,0.288-1.074    c-0.104-0.388-0.398-0.682-0.787-0.786l-6.646-1.781C66.138,38.64,66.04,38.627,65.942,38.627z M56.411,38.627    c-0.098,0-0.195,0.013-0.291,0.039l-6.647,1.781c-0.388,0.104-0.681,0.397-0.785,0.786c-0.104,0.388,0.004,0.79,0.288,1.074    l4.865,4.866c0.21,0.21,0.488,0.326,0.784,0.326c0.504,0,0.946-0.339,1.076-0.825l1.781-6.647c0.09-0.336,0.021-0.688-0.191-0.963    C57.082,38.791,56.753,38.627,56.411,38.627z M61.177,32.514c-1.354,0-2.457,1.102-2.457,2.457s1.103,2.458,2.457,2.458    s2.457-1.103,2.457-2.458S62.531,32.514,61.177,32.514z M67.729,22.444c-0.504,0-0.946,0.339-1.076,0.824l-1.781,6.648    c-0.09,0.336-0.021,0.688,0.191,0.963c0.209,0.274,0.538,0.437,0.88,0.437c0.098,0,0.195-0.013,0.291-0.039l6.646-1.781    c0.388-0.104,0.682-0.397,0.786-0.786c0.104-0.388-0.004-0.79-0.288-1.074l-4.865-4.866C68.303,22.56,68.024,22.444,67.729,22.444    z M54.625,22.444c-0.296,0-0.574,0.116-0.784,0.326l-4.865,4.866c-0.284,0.284-0.392,0.686-0.288,1.074    c0.104,0.388,0.397,0.682,0.786,0.786l6.646,1.781c0.096,0.026,0.193,0.039,0.291,0.039c0.342,0,0.671-0.163,0.88-0.437    c0.212-0.275,0.281-0.626,0.19-0.963l-1.78-6.647C55.571,22.783,55.129,22.444,54.625,22.444z" fill="#5B5B5B"/><path d="M61.177,19.471c8.547,0,15.501,6.954,15.501,15.501s-6.953,15.501-15.501,15.501    s-15.501-6.954-15.501-15.501S52.63,19.471,61.177,19.471 M56.411,31.815c0.496,0,0.973-0.236,1.277-0.632    c0.307-0.4,0.408-0.909,0.277-1.397l-1.781-6.647c-0.189-0.704-0.83-1.195-1.559-1.195c-0.429,0-0.832,0.168-1.137,0.472    l-4.866,4.866c-0.406,0.406-0.566,1.002-0.417,1.557c0.149,0.554,0.585,0.991,1.14,1.14l6.647,1.781    C56.129,31.797,56.27,31.815,56.411,31.815 M65.942,31.815c0.141,0,0.282-0.019,0.42-0.056l6.647-1.781    c0.554-0.149,0.991-0.585,1.14-1.14c0.149-0.554-0.011-1.151-0.417-1.557l-4.866-4.866c-0.305-0.305-0.709-0.472-1.137-0.472    c-0.73,0-1.371,0.491-1.559,1.195l-1.781,6.647c-0.131,0.488-0.03,0.997,0.277,1.397C64.969,31.579,65.447,31.815,65.942,31.815     M61.177,37.929c1.631,0,2.957-1.327,2.957-2.957c0-1.631-1.327-2.957-2.957-2.957s-2.957,1.327-2.957,2.957    C58.219,36.602,59.546,37.929,61.177,37.929 M67.729,47.999c0.429,0,0.833-0.168,1.137-0.472l4.866-4.866    c0.406-0.406,0.566-1.002,0.417-1.557c-0.149-0.554-0.585-0.991-1.14-1.14l-6.647-1.781c-0.138-0.037-0.279-0.056-0.42-0.056    c-0.496,0-0.973,0.236-1.277,0.633c-0.307,0.4-0.408,0.909-0.277,1.397l1.781,6.647C66.358,47.508,66.999,47.999,67.729,47.999     M54.625,47.999c0.73,0,1.371-0.491,1.559-1.195l1.781-6.647c0.131-0.488,0.03-0.997-0.277-1.397    c-0.304-0.396-0.781-0.632-1.277-0.632c-0.141,0-0.282,0.019-0.42,0.056l-6.647,1.781c-0.554,0.149-0.991,0.585-1.14,1.14    c-0.149,0.554,0.011,1.151,0.417,1.557l4.866,4.866C53.792,47.831,54.196,47.999,54.625,47.999 M61.177,18.471    c-9.113,0-16.501,7.388-16.501,16.501s7.388,16.501,16.501,16.501c9.113,0,16.501-7.388,16.501-16.501S70.29,18.471,61.177,18.471    L61.177,18.471z M56.411,30.815c-0.053,0-0.107-0.007-0.161-0.021l-6.647-1.781c-0.455-0.122-0.607-0.691-0.274-1.024l4.866-4.866    c0.123-0.123,0.278-0.18,0.43-0.18c0.261,0,0.516,0.167,0.593,0.454l1.781,6.647C57.107,30.445,56.797,30.815,56.411,30.815    L56.411,30.815z M65.942,30.815c-0.386,0-0.695-0.37-0.588-0.771l1.781-6.647c0.077-0.287,0.332-0.454,0.593-0.454    c0.153,0,0.307,0.057,0.43,0.18l4.866,4.866c0.333,0.333,0.181,0.902-0.274,1.024l-6.647,1.781    C66.049,30.809,65.995,30.815,65.942,30.815L65.942,30.815z M61.177,36.929c-1.081,0-1.957-0.876-1.957-1.957    s0.876-1.957,1.957-1.957c1.081,0,1.957,0.876,1.957,1.957S62.258,36.929,61.177,36.929L61.177,36.929z M54.625,46.999    c-0.153,0-0.307-0.057-0.43-0.18l-4.866-4.866c-0.333-0.333-0.181-0.902,0.274-1.024l6.647-1.781    c0.055-0.015,0.109-0.022,0.161-0.022c0.386,0,0.695,0.37,0.588,0.771l-1.781,6.647C55.141,46.832,54.886,46.999,54.625,46.999    L54.625,46.999z M67.729,46.999c-0.261,0-0.516-0.167-0.593-0.454l-1.781-6.647c-0.107-0.4,0.202-0.771,0.588-0.771    c0.053,0,0.107,0.007,0.161,0.021l6.647,1.781c0.455,0.122,0.607,0.691,0.274,1.024l-4.866,4.866    C68.036,46.942,67.881,46.999,67.729,46.999L67.729,46.999z" fill="#191919"/></g><path d="M27.719,19.688c-8.441,0-15.283,6.843-15.283,15.283c0,8.441,6.843,15.283,15.283,15.283   s15.283-6.843,15.283-15.283C43.002,26.531,36.159,19.688,27.719,19.688z M27.811,38.96c-1.88,0-3.404-1.524-3.404-3.404   c0-1.88,1.524-3.404,3.404-3.404c1.88,0,3.404,1.524,3.404,3.404C31.215,37.436,29.691,38.96,27.811,38.96z" fill="#232323"/><g><path d="M27.719,50.972c-8.823,0-16.001-7.178-16.001-16.001s7.178-16,16.001-16s16.001,7.178,16.001,16    S36.542,50.972,27.719,50.972z M32.484,38.627c-0.342,0-0.671,0.163-0.88,0.437c-0.212,0.275-0.281,0.626-0.19,0.963l1.78,6.647    c0.13,0.485,0.572,0.824,1.076,0.824c0.296,0,0.574-0.116,0.784-0.326l4.865-4.866c0.284-0.284,0.392-0.686,0.288-1.074    c-0.104-0.388-0.397-0.682-0.786-0.786l-6.646-1.781C32.68,38.64,32.582,38.627,32.484,38.627z M22.953,38.627    c-0.098,0-0.195,0.013-0.291,0.039l-6.647,1.781c-0.388,0.104-0.681,0.397-0.785,0.786c-0.104,0.388,0.004,0.79,0.288,1.074    l4.865,4.866c0.21,0.21,0.488,0.326,0.784,0.326c0.504,0,0.946-0.339,1.076-0.825l1.781-6.647c0.09-0.336,0.021-0.688-0.191-0.963    C23.624,38.791,23.295,38.627,22.953,38.627z M27.719,32.514c-1.354,0-2.457,1.102-2.457,2.457s1.103,2.458,2.457,2.458    s2.457-1.103,2.457-2.458S29.073,32.514,27.719,32.514z M34.271,22.444c-0.504,0-0.946,0.339-1.076,0.825l-1.781,6.647    c-0.09,0.336-0.021,0.688,0.191,0.963c0.209,0.274,0.538,0.437,0.88,0.437c0.098,0,0.195-0.013,0.291-0.039l6.647-1.781    c0.388-0.104,0.681-0.397,0.785-0.786c0.104-0.388-0.004-0.79-0.288-1.074l-4.865-4.866C34.845,22.56,34.566,22.444,34.271,22.444    z M21.167,22.444c-0.296,0-0.574,0.116-0.784,0.326l-4.865,4.866c-0.284,0.284-0.392,0.686-0.288,1.074    c0.104,0.388,0.397,0.682,0.786,0.786l6.646,1.781c0.096,0.026,0.193,0.039,0.291,0.039c0.342,0,0.671-0.163,0.88-0.437    c0.212-0.275,0.281-0.626,0.19-0.963l-1.78-6.647C22.113,22.783,21.671,22.444,21.167,22.444z" fill="#5B5B5B"/><path d="M27.719,19.471c8.547,0,15.501,6.954,15.501,15.501s-6.953,15.501-15.501,15.501    s-15.501-6.954-15.501-15.501S19.172,19.471,27.719,19.471 M22.953,31.815c0.496,0,0.973-0.236,1.277-0.632    c0.307-0.4,0.408-0.909,0.277-1.397l-1.781-6.647c-0.189-0.704-0.83-1.195-1.559-1.195c-0.429,0-0.832,0.168-1.137,0.472    l-4.866,4.866c-0.406,0.406-0.566,1.002-0.417,1.557c0.149,0.554,0.585,0.991,1.14,1.14l6.647,1.781    C22.671,31.797,22.812,31.815,22.953,31.815 M32.484,31.815c0.141,0,0.282-0.019,0.42-0.056l6.647-1.781    c0.554-0.149,0.991-0.585,1.14-1.14c0.149-0.554-0.011-1.151-0.417-1.557l-4.866-4.866c-0.305-0.305-0.709-0.472-1.137-0.472    c-0.73,0-1.371,0.491-1.559,1.195l-1.781,6.647c-0.131,0.488-0.03,0.997,0.277,1.397C31.511,31.579,31.989,31.815,32.484,31.815     M27.719,37.929c1.631,0,2.957-1.327,2.957-2.957c0-1.631-1.327-2.957-2.957-2.957s-2.957,1.327-2.957,2.957    C24.761,36.602,26.088,37.929,27.719,37.929 M34.271,47.999c0.429,0,0.833-0.168,1.137-0.472l4.866-4.866    c0.406-0.406,0.566-1.002,0.417-1.557c-0.149-0.554-0.585-0.991-1.14-1.14l-6.647-1.781c-0.138-0.037-0.279-0.056-0.42-0.056    c-0.496,0-0.973,0.236-1.277,0.633c-0.307,0.4-0.408,0.909-0.277,1.397l1.781,6.647C32.9,47.508,33.541,47.999,34.271,47.999     M21.167,47.999c0.73,0,1.371-0.491,1.559-1.195l1.781-6.647c0.131-0.488,0.03-0.997-0.277-1.397    c-0.304-0.396-0.781-0.632-1.277-0.632c-0.141,0-0.282,0.019-0.42,0.056l-6.647,1.781c-0.554,0.149-0.991,0.585-1.14,1.14    c-0.149,0.554,0.011,1.151,0.417,1.557l4.866,4.866C20.334,47.831,20.738,47.999,21.167,47.999 M27.719,18.471    c-9.113,0-16.501,7.388-16.501,16.501s7.388,16.501,16.501,16.501c9.113,0,16.501-7.388,16.501-16.501    S36.832,18.471,27.719,18.471L27.719,18.471z M22.953,30.815c-0.053,0-0.107-0.007-0.161-0.021l-6.647-1.781    c-0.455-0.122-0.607-0.691-0.274-1.024l4.866-4.866c0.123-0.123,0.278-0.18,0.43-0.18c0.261,0,0.516,0.167,0.593,0.454    l1.781,6.647C23.649,30.445,23.339,30.815,22.953,30.815L22.953,30.815z M32.484,30.815c-0.386,0-0.695-0.37-0.588-0.771    l1.781-6.647c0.077-0.287,0.332-0.454,0.593-0.454c0.153,0,0.307,0.057,0.43,0.18l4.866,4.866    c0.333,0.333,0.181,0.902-0.274,1.024l-6.647,1.781C32.591,30.809,32.537,30.815,32.484,30.815L32.484,30.815z M27.719,36.929    c-1.081,0-1.957-0.876-1.957-1.957c0-1.081,0.876-1.957,1.957-1.957c1.081,0,1.957,0.876,1.957,1.957    C29.676,36.052,28.8,36.929,27.719,36.929L27.719,36.929z M21.167,46.999c-0.153,0-0.307-0.057-0.43-0.18l-4.866-4.866    c-0.333-0.333-0.181-0.902,0.274-1.024l6.647-1.781c0.055-0.015,0.109-0.022,0.161-0.022c0.386,0,0.695,0.37,0.588,0.771    l-1.781,6.647C21.683,46.832,21.428,46.999,21.167,46.999L21.167,46.999z M34.271,46.999c-0.261,0-0.516-0.167-0.593-0.454    l-1.781-6.647c-0.107-0.4,0.202-0.771,0.588-0.771c0.053,0,0.107,0.007,0.161,0.021l6.647,1.781    c0.455,0.122,0.607,0.691,0.274,1.024l-4.866,4.866C34.578,46.942,34.423,46.999,34.271,46.999L34.271,46.999z" fill="#191919"/></g><path d="M62.709,73H25.73c-0.395,0-0.715-0.32-0.715-0.715V58.578   c0-0.395,0.32-0.715,0.715-0.715h36.979c0.395,0,0.715,0.32,0.715,0.715v13.707C63.424,72.68,63.104,73,62.709,73z" fill="#232323" stroke="#191919" stroke-miterlimit="10"/></g></svg>